<?xml version="1.0" standalone="no"?>
<!DOCTYPE svg PUBLIC "-//W3C//DTD SVG 20010904//EN"
 "http://www.w3.org/TR/2001/REC-SVG-20010904/DTD/svg10.dtd">
<svg version="1.0" xmlns="http://www.w3.org/2000/svg"
 width="1080.000000pt" height="1080.000000pt" viewBox="0 0 1080.000000 1080.000000"
 preserveAspectRatio="xMidYMid meet">
<metadata>
Created by potrace 1.16, written by Peter Selinger 2001-2019
</metadata>
<g transform="translate(0.000000,1080.000000) scale(0.100000,-0.100000)"
fill="#000000" stroke="none">
<path d="M5379 9923 c-1 -5 -1 -11 -1 -15 1 -3 -5 -9 -13 -12 -8 -3 -15 0 -15
6 0 9 -3 9 -12 0 -10 -10 -10 -15 2 -22 12 -7 12 -12 2 -22 -9 -9 -12 -9 -12
2 0 7 -3 10 -7 6 -5 -4 -8 -13 -8 -19 0 -7 -14 -12 -30 -13 -58 -1 -65 -4 -65
-23 0 -34 -12 -51 -35 -51 -44 0 -74 -17 -68 -38 3 -11 0 -30 -7 -42 -9 -16
-9 -25 1 -36 15 -18 -2 -34 -37 -34 -12 0 -25 -7 -28 -16 -4 -11 -13 -14 -29
-10 -21 5 -97 -26 -131 -52 -6 -5 -29 -15 -51 -22 -22 -7 -62 -28 -89 -47 -26
-18 -55 -33 -63 -33 -8 0 -28 -8 -46 -17 -18 -9 -49 -15 -69 -14 -34 2 -38 -1
-52 -33 -19 -45 -56 -51 -56 -10 0 25 -2 26 -36 20 -41 -8 -77 -39 -62 -54 13
-13 -8 -52 -28 -52 -8 0 -24 5 -36 11 -11 6 -30 8 -42 5 -19 -5 -22 -11 -18
-38 3 -18 10 -36 16 -40 8 -6 8 -8 0 -8 -7 0 -15 -7 -18 -16 -4 -9 -2 -13 5
-8 6 4 15 0 20 -7 16 -25 9 -58 -16 -83 -14 -14 -25 -30 -25 -36 0 -6 -7 -13
-15 -16 -8 -4 -15 -15 -15 -26 0 -14 -5 -18 -15 -14 -9 3 -24 -3 -35 -14 -11
-11 -24 -20 -30 -20 -5 0 -12 -17 -16 -37 -4 -21 -9 -32 -11 -25 -6 15 -43 16
-43 1 0 -5 16 -17 35 -24 l34 -15 -3 -70 c-2 -56 0 -70 13 -73 14 -4 14 -5 0
-6 -18 -1 -33 -27 -23 -42 3 -5 14 -9 24 -9 23 0 36 -50 21 -78 -8 -15 -4 -30
14 -65 25 -45 33 -102 16 -109 -21 -8 -60 -89 -66 -139 -15 -126 -5 -305 25
-429 14 -57 17 -105 15 -205 -3 -146 -11 -195 -31 -195 -8 0 -14 6 -14 13 0 8
-4 7 -10 -3 -8 -12 -10 -12 -10 -1 0 8 -3 12 -6 8 -3 -3 1 -20 10 -38 18 -37
21 -59 6 -59 -5 0 -10 -9 -10 -20 0 -46 35 -13 45 42 8 42 32 58 43 27 4 -11
8 38 8 108 1 70 7 148 13 173 15 54 56 100 88 100 21 0 118 -64 158 -103 18
-19 20 -66 2 -73 -15 -5 -11 -61 5 -81 5 -7 9 -54 8 -105 0 -51 2 -124 5 -163
l6 -70 -18 30 c-9 17 -24 43 -33 59 -19 37 -40 45 -40 17 0 -12 -5 -21 -11
-21 -7 0 -8 16 -3 46 7 51 14 67 57 131 24 34 27 45 17 62 -14 27 -14 27 -55
-11 -21 -19 -35 -41 -35 -55 0 -13 -4 -22 -8 -19 -11 7 -35 -52 -28 -70 5 -13
9 -14 21 -4 12 10 16 9 21 -5 7 -18 -11 -36 -30 -29 -6 2 -19 -10 -29 -27 -17
-31 -17 -32 2 -50 11 -11 26 -19 33 -19 7 0 33 -14 57 -30 24 -17 49 -30 56
-30 15 0 25 -53 25 -131 0 -70 -13 -84 -76 -76 -56 6 -86 37 -109 111 -20 67
-19 71 12 47 14 -12 28 -19 30 -17 11 10 -14 62 -48 102 -43 50 -56 113 -44
211 10 83 92 281 110 266 5 -4 3 0 -4 10 -7 9 -19 17 -26 17 -11 0 -49 -84
-80 -180 -15 -44 -15 -43 -10 54 6 108 18 144 52 162 31 15 18 26 -14 11 -53
-24 -57 -48 -59 -342 -1 -148 2 -286 6 -305 5 -24 1 -53 -11 -90 -10 -30 -16
-56 -14 -58 8 -9 24 10 19 22 -3 8 -1 17 5 21 6 3 11 -2 11 -13 0 -26 -28 -92
-39 -92 -5 0 -6 -20 -4 -44 7 -59 -6 -216 -18 -216 -5 0 -9 27 -9 61 0 42 -3
58 -11 53 -8 -5 -10 -45 -7 -136 3 -71 8 -131 10 -134 13 -12 114 -32 122 -23
12 11 56 12 57 2 0 -5 2 -20 4 -35 2 -16 -1 -28 -8 -28 -6 0 4 -12 23 -27 18
-16 41 -37 49 -47 9 -10 24 -28 35 -39 15 -15 17 -30 14 -73 -3 -30 -1 -54 5
-54 5 0 7 -41 6 -91 -3 -86 -2 -93 20 -111 22 -17 23 -21 11 -44 -11 -19 -11
-32 -3 -54 9 -23 8 -32 -2 -40 -8 -6 -17 -26 -20 -43 -4 -18 -16 -41 -26 -52
-11 -11 -29 -32 -40 -47 -14 -20 -29 -28 -51 -28 -23 0 -29 4 -24 15 4 12 2
13 -13 6 -10 -6 -21 -18 -25 -27 -4 -10 -12 -14 -23 -10 -19 8 -83 -11 -83
-25 0 -5 -9 -9 -20 -9 -11 0 -20 -7 -20 -15 0 -10 -10 -15 -34 -15 -19 0 -37
-4 -40 -9 -3 -5 -15 -11 -27 -14 -15 -4 -19 -2 -15 9 3 8 3 14 0 14 -15 0 -80
-35 -87 -47 -5 -9 -16 -11 -30 -7 -19 6 -20 5 -8 -9 17 -21 7 -25 -64 -29 -40
-2 -51 -7 -55 -23 -3 -11 -16 -21 -27 -23 -13 -2 -20 -8 -17 -16 9 -23 -39
-28 -56 -7 -8 11 -24 21 -35 23 -16 2 -21 12 -23 46 -2 23 -8 42 -13 42 -6 0
-7 9 -4 20 5 17 2 20 -25 20 -27 0 -30 -3 -25 -20 4 -11 2 -20 -4 -20 -6 0
-11 6 -12 13 -1 6 -5 -4 -9 -23 -5 -20 -5 -39 1 -45 5 -5 9 -17 9 -26 0 -14
-10 -19 -42 -21 -39 -3 -43 -5 -40 -27 5 -34 41 -61 71 -54 20 5 23 3 17 -12
-4 -11 -1 -22 6 -27 10 -7 10 -8 -2 -7 -22 3 -80 -12 -86 -22 -7 -12 -46 -11
-64 2 -11 8 -5 9 23 4 33 -5 37 -4 37 15 0 11 -7 20 -15 20 -14 0 -19 11 -16
38 1 6 -5 12 -13 12 -8 0 -20 8 -25 18 -9 14 -10 12 -11 -13 0 -17 6 -37 13
-44 10 -12 9 -13 -7 -7 -15 5 -18 2 -13 -19 3 -20 1 -25 -10 -21 -8 3 -18 6
-23 6 -4 0 -11 25 -15 55 -4 31 -11 55 -18 55 -7 0 -6 4 3 10 11 7 0 10 -37
10 -39 0 -53 4 -53 14 0 8 6 17 13 19 6 3 2 6 -11 6 -13 1 -21 -3 -17 -8 6
-10 -61 -28 -80 -22 -5 2 -28 8 -50 13 -22 5 -49 18 -61 29 -14 13 -32 19 -54
17 -29 -3 -35 1 -40 22 -4 16 -12 24 -23 22 -11 -2 -17 4 -17 18 0 11 7 20 15
20 11 0 15 11 15 40 0 46 -27 80 -64 80 -13 0 -26 5 -28 11 -4 12 -38 1 -38
-12 0 -4 6 -6 14 -3 8 3 24 0 36 -6 17 -9 21 -19 18 -41 -4 -23 -1 -29 14 -29
11 0 18 -7 18 -20 0 -28 -60 -29 -67 -1 -5 20 -33 38 -33 21 0 -5 4 -20 10
-34 9 -24 7 -26 -15 -26 -21 0 -25 5 -25 30 0 16 -8 37 -19 47 -10 10 -26 30
-36 46 -25 39 -35 34 -35 -18 0 -33 4 -45 14 -45 22 0 28 -17 16 -40 -13 -24
-30 -26 -30 -4 0 36 -72 63 -83 32 -2 -8 -8 -9 -13 -4 -5 5 -4 11 4 13 8 3 12
26 12 64 l0 59 48 0 c26 0 54 5 62 10 13 9 11 13 -10 30 -29 22 -39 24 -74 10
-20 -7 -26 -6 -26 5 0 10 -8 6 -26 -10 -15 -14 -33 -25 -40 -25 -27 0 -13 -29
19 -39 31 -10 32 -14 29 -51 -4 -39 -4 -40 -21 -18 l-18 21 -11 -33 c-7 -18
-12 -42 -12 -52 0 -23 23 -48 44 -48 23 0 20 -17 -4 -25 -26 -8 -26 -25 0 -25
14 0 22 -11 30 -41 6 -22 9 -50 7 -62 l-4 -22 -8 22 c-13 39 -37 38 -72 -3
-18 -20 -33 -43 -33 -50 0 -7 -8 -18 -17 -23 -16 -9 -16 -10 -2 -11 22 0 44
-26 29 -35 -13 -8 -3 -25 16 -25 9 0 14 10 14 29 0 33 13 41 56 34 l29 -4 -30
17 c-20 11 -30 13 -33 5 -5 -16 -42 -14 -42 3 0 8 11 28 25 43 l25 28 23 -26
c12 -14 30 -29 40 -32 21 -8 23 -53 2 -61 -8 -3 -15 -16 -15 -30 0 -15 -7 -26
-17 -29 -12 -3 -9 -5 8 -6 22 -1 65 -31 45 -31 -4 0 3 -14 15 -32 13 -17 25
-26 27 -20 2 7 7 12 12 12 13 0 70 -60 70 -74 0 -12 66 -25 143 -29 11 -1 17
-9 17 -25 0 -16 -4 -22 -14 -19 -7 3 -26 -1 -41 -9 -32 -17 -38 -17 -30 -4 3
6 -3 10 -15 10 -12 0 -19 -4 -15 -9 3 -6 -4 -15 -15 -21 -11 -6 -20 -15 -20
-21 0 -5 11 -2 25 7 25 17 42 14 31 -4 -10 -17 -73 -42 -103 -42 -37 0 -73
-32 -66 -58 7 -27 -15 -37 -37 -17 -12 11 -20 13 -25 5 -10 -16 5 -90 18 -90
8 0 7 -4 -1 -12 -7 -7 -12 -19 -12 -28 0 -11 -10 -15 -40 -15 -22 0 -40 3 -40
8 0 4 4 5 10 2 6 -3 10 3 10 14 0 12 -4 21 -9 21 -8 0 -6 23 5 60 5 13 6 13
14 0 8 -13 10 -12 10 3 0 10 -9 27 -20 39 l-20 22 0 -57 0 -57 -40 0 c-22 0
-40 5 -40 10 0 11 -75 12 -159 2 -39 -5 -55 -12 -57 -23 -1 -12 4 -15 17 -12
17 5 18 2 9 -18 -6 -13 -13 -32 -16 -41 -4 -10 -13 -18 -21 -18 -8 0 -12 -4
-9 -9 4 -5 0 -12 -6 -14 -7 -3 0 -6 15 -6 16 -1 26 3 22 9 -3 6 1 10 10 10 10
0 13 -5 9 -11 -5 -9 7 -11 42 -7 27 2 41 3 31 1 -14 -4 -16 -7 -6 -19 9 -11 9
-21 0 -42 -8 -19 -9 -36 -2 -53 5 -13 10 -18 10 -10 1 10 4 11 14 2 8 -6 17
-8 20 -4 4 3 7 1 7 -5 0 -7 8 -12 17 -12 13 0 14 3 6 11 -12 12 3 59 19 59 4
0 8 8 8 18 1 9 15 24 35 33 31 15 33 15 32 -1 -1 -12 -7 -15 -21 -12 -12 3
-17 1 -12 -6 3 -6 2 -14 -4 -17 -6 -4 -8 -16 -5 -28 5 -18 4 -19 -5 -7 -10 12
-11 11 -7 -8 5 -20 2 -22 -16 -16 -21 6 -20 5 3 -16 14 -12 24 -27 22 -33 -2
-6 5 -26 15 -45 17 -32 17 -34 0 -46 -9 -7 -17 -23 -17 -36 0 -31 -55 -80 -91
-80 -36 0 -38 -16 -4 -24 26 -7 34 -31 13 -39 -7 -2 -10 -8 -6 -12 4 -4 14 -3
21 3 8 7 17 8 21 4 5 -4 6 2 4 12 -2 14 4 21 20 25 26 7 54 69 48 106 -2 11 3
35 11 54 11 26 12 36 3 41 -9 5 -9 9 -1 14 6 4 11 20 11 35 0 16 7 34 15 41 8
7 15 21 15 32 0 21 32 38 38 20 13 -39 81 27 89 87 10 72 52 79 53 9 0 -15 4
-29 9 -33 6 -3 9 -13 9 -23 -1 -25 31 -141 49 -175 11 -22 18 -26 26 -18 8 8
6 29 -6 78 -9 38 -21 95 -27 128 -6 33 -16 75 -21 93 -12 38 2 65 28 55 9 -4
21 1 29 11 7 10 18 15 23 11 10 -6 71 45 71 59 0 15 -44 3 -67 -18 -33 -31
-84 -42 -99 -21 -6 8 -16 15 -23 15 -19 0 -12 18 16 40 26 20 108 60 124 60 5
0 46 18 91 39 221 104 258 121 265 121 3 0 14 6 22 14 9 8 50 30 91 51 41 20
86 43 100 51 14 8 58 31 99 50 83 39 174 96 211 132 14 14 36 30 50 36 14 6
46 24 72 39 26 16 76 39 110 51 35 13 85 33 112 46 81 36 279 102 306 101 14
-1 32 -10 40 -20 20 -25 109 -73 121 -66 17 11 9 26 -11 20 -17 -6 -20 -2 -20
30 0 20 4 34 8 31 5 -3 8 11 7 31 -2 21 -8 39 -14 41 -16 5 -13 42 4 49 21 8
30 -3 17 -20 -7 -8 -9 -17 -6 -20 10 -10 41 27 48 58 4 17 17 37 29 47 17 13
21 25 18 60 -1 23 2 54 7 67 7 21 11 16 31 -45 43 -129 132 -245 215 -279 21
-9 40 -15 42 -13 2 2 -24 30 -57 62 -63 61 -89 108 -89 162 0 18 -5 36 -10 39
-6 4 -8 10 -6 14 3 4 1 24 -4 45 -6 28 -5 39 5 42 23 9 41 113 21 126 -7 5 -4
8 7 8 15 0 16 3 7 21 -10 18 -9 19 7 11 31 -17 113 -103 113 -119 0 -10 6 -13
15 -9 9 3 15 1 14 -7 -4 -34 -4 -35 81 -107 80 -68 186 -128 320 -180 30 -12
61 -26 68 -32 14 -12 183 -24 208 -14 28 11 10 17 -83 27 -115 13 -114 12
-155 32 -50 24 -63 41 -43 61 16 16 11 66 -7 66 -5 0 -6 5 -3 10 3 6 11 10 16
10 6 0 7 -5 4 -10 -6 -10 56 -6 93 6 6 2 12 -1 12 -7 0 -6 6 -9 14 -6 7 3 18
1 24 -5 20 -20 175 -22 276 -3 53 9 98 21 102 26 3 5 12 9 19 9 21 0 115 42
115 52 0 4 5 8 11 8 12 0 112 70 117 82 2 5 9 8 14 8 6 0 45 25 85 56 41 30
81 53 88 50 8 -3 20 9 31 32 9 20 19 32 21 25 6 -16 -42 -108 -75 -145 -15
-16 -53 -48 -85 -71 -31 -22 -55 -42 -53 -45 3 -2 25 11 50 29 45 32 71 34 46
4 -11 -13 -10 -14 4 -9 11 4 16 1 16 -11 0 -9 4 -14 8 -11 4 2 9 -5 9 -17 3
-30 -36 -96 -76 -132 -19 -16 -39 -35 -45 -40 -6 -6 -39 -28 -73 -49 -102 -63
-368 -333 -403 -410 -8 -18 -34 -54 -58 -81 -23 -26 -41 -50 -38 -52 2 -2 17
4 34 14 17 10 33 15 36 12 13 -13 -54 -169 -88 -202 -25 -25 -52 -123 -61
-217 -14 -165 -17 -310 -6 -310 7 0 11 22 11 62 0 34 4 87 10 117 5 31 14 95
20 143 10 87 30 150 56 179 8 9 27 43 43 76 16 33 40 72 53 86 13 14 34 60 46
104 42 138 55 167 118 244 34 42 71 85 81 95 41 40 122 104 131 104 6 0 12 3
14 8 2 4 30 25 63 47 68 44 149 121 141 134 -3 4 1 17 10 27 14 18 15 17 13
-11 -1 -16 0 -34 1 -40 1 -5 2 -26 3 -45 1 -24 7 -35 17 -35 18 0 16 57 -4
116 -11 30 -11 47 -1 86 l12 48 21 -42 c12 -23 26 -44 31 -48 5 -3 16 -18 24
-33 38 -72 85 -159 98 -181 19 -34 59 -71 76 -71 7 0 30 -7 51 -16 45 -21 43
-20 117 -34 82 -16 161 -38 215 -60 25 -9 59 -20 75 -24 72 -15 168 -52 176
-68 8 -14 6 -18 -8 -18 -29 0 -1 -18 40 -25 33 -6 36 -5 31 10 -6 15 -3 16 27
10 52 -11 79 -23 79 -35 0 -5 3 -9 8 -8 4 0 14 -1 22 -4 8 -3 47 -16 85 -28
39 -12 95 -35 125 -51 95 -49 233 -106 285 -117 93 -20 125 -23 125 -12 0 9
-36 15 -68 11 -7 -1 -15 5 -18 14 -3 8 -16 15 -28 15 -17 0 -18 2 -6 10 12 8
9 10 -11 10 -15 0 -32 6 -39 14 -6 8 -18 12 -25 10 -28 -11 -36 7 -15 36 18
25 23 27 57 20 50 -12 62 7 25 37 -21 17 -28 18 -30 7 -2 -8 -12 -14 -23 -14
-10 0 -19 -4 -19 -10 0 -5 -5 -10 -11 -10 -7 0 -17 -6 -23 -13 -6 -7 -10 -11
-9 -9 3 6 -75 82 -84 82 -4 0 -15 -5 -23 -10 -13 -8 -11 -11 8 -16 12 -4 22
-13 22 -22 0 -8 8 -21 18 -28 9 -8 12 -14 5 -14 -7 0 -23 11 -37 25 -14 14
-37 25 -51 25 -14 0 -25 5 -25 10 0 6 -9 10 -20 10 -24 0 -100 37 -100 48 0 4
7 15 14 25 7 9 11 28 9 42 -3 14 1 31 11 40 11 12 16 35 16 76 0 46 3 59 15
59 8 0 15 5 15 10 0 6 -12 9 -27 8 -63 -4 -83 1 -83 22 0 15 7 20 28 21 l27 1
-30 8 c-16 4 -23 8 -14 9 9 0 24 10 34 21 10 12 25 18 32 16 32 -13 62 34 54
87 -1 10 4 17 13 17 9 0 16 7 16 16 0 8 5 12 11 9 6 -4 8 -9 5 -12 -3 -3 -1
-14 5 -24 7 -15 6 -19 -6 -19 -8 0 -15 -9 -15 -20 0 -14 7 -20 24 -20 21 0 42
23 38 43 -1 4 3 7 9 7 5 0 9 8 8 18 -1 9 -1 28 0 41 1 24 1 24 15 5 21 -28 33
-8 13 25 -20 33 -12 71 14 71 11 0 22 7 25 15 9 24 34 18 34 -8 0 -13 9 -33
20 -45 12 -12 16 -22 10 -22 -6 0 -8 -5 -5 -11 4 -6 13 -8 21 -5 8 3 11 0 7
-10 -3 -7 0 -14 7 -14 8 0 10 17 6 58 -2 31 -2 47 0 34 3 -13 11 -21 17 -19
12 4 13 15 2 57 -3 14 -7 39 -8 56 -2 25 1 30 16 26 15 -4 17 0 11 35 -5 36
-4 41 16 46 18 5 21 2 17 -14 -4 -17 -3 -18 9 -8 8 6 14 17 14 24 0 7 7 15 15
19 17 6 20 32 5 41 -6 3 -15 -6 -20 -20 -5 -14 -14 -24 -19 -21 -5 4 -11 2
-13 -3 -1 -4 -14 -12 -28 -16 -21 -7 -23 -6 -13 7 17 19 4 31 -15 15 -13 -10
-14 -8 -8 17 l7 29 -25 -17 c-24 -15 -28 -15 -51 0 -13 9 -27 24 -30 35 -7 21
-20 25 -30 9 -10 -16 -22 -3 -28 29 -4 20 -16 33 -37 42 -48 22 -35 43 28 47
31 2 60 -2 68 -9 8 -6 14 -7 14 -2 0 5 17 14 38 19 35 8 37 12 42 54 l5 44 18
-27 c21 -33 35 -34 42 -4 5 18 13 22 50 23 l45 1 0 -43 c0 -38 -2 -42 -21 -37
-19 5 -20 4 -8 -16 8 -11 17 -21 21 -21 5 0 8 -8 8 -17 0 -13 -10 -8 -35 20
-42 45 -63 49 -38 7 9 -16 23 -30 30 -30 7 0 17 -9 23 -20 6 -11 18 -20 27
-20 12 0 14 7 10 30 -8 37 5 46 28 20 10 -11 20 -18 24 -16 3 2 12 -2 19 -10
7 -8 8 -14 2 -14 -18 0 -10 -16 15 -30 20 -10 28 -11 37 -2 9 9 9 12 0 12 -24
0 -11 19 18 25 25 5 30 11 30 36 0 20 5 29 16 29 34 0 65 60 43 86 -7 9 -10
30 -6 57 6 43 -5 78 -20 64 -4 -5 -1 -12 7 -17 8 -6 10 -10 5 -10 -13 0 -75
56 -75 67 0 5 7 19 16 31 18 26 11 42 -18 42 -20 0 -21 9 -3 52 5 13 2 15 -14
11 -12 -3 -21 -12 -21 -20 0 -8 -5 -11 -11 -7 -6 3 -15 0 -20 -7 -7 -11 -9
-10 -9 4 0 9 7 17 15 17 24 0 56 81 45 116 -7 26 -8 24 -9 -19 -1 -32 -5 -46
-12 -41 -7 4 -9 26 -5 59 4 39 2 56 -8 64 -11 9 -16 9 -20 -1 -3 -7 -4 -3 -2
10 2 13 -1 22 -8 22 -20 0 -59 48 -53 64 4 9 1 18 -5 22 -7 5 -8 2 -3 -7 4 -8
-1 -5 -12 6 -11 11 -38 29 -61 39 -23 11 -42 23 -42 28 0 4 -13 8 -30 8 -19 0
-30 5 -30 14 0 8 -8 17 -17 21 -17 6 -17 7 0 19 24 18 21 26 -8 26 -32 0 -32
13 -1 38 13 10 26 27 28 38 2 16 -4 20 -36 22 -47 4 -77 -5 -57 -17 11 -7 9
-11 -8 -20 -29 -16 -61 2 -61 34 0 29 2 28 -36 16 -16 -5 -42 -12 -58 -16 -24
-5 -27 -8 -15 -16 12 -8 11 -12 -6 -25 -11 -8 -28 -13 -37 -11 -9 3 -25 -1
-34 -8 -25 -18 -54 -7 -54 21 0 27 -2 28 -148 24 l-94 -2 4 100 c1 55 1 97 -2
93 -3 -4 -13 -10 -22 -14 -14 -5 -18 -18 -18 -52 0 -38 -3 -45 -20 -45 -17 0
-20 7 -20 40 l0 40 -40 0 c-25 0 -40 5 -41 13 -3 25 -6 52 -7 61 -1 6 -8 2
-15 -9 -11 -14 -16 -15 -22 -5 -4 7 -3 15 3 19 7 4 8 12 2 21 -15 23 -12 51 6
71 9 10 18 29 19 41 5 38 21 72 46 95 39 36 52 55 43 62 -5 3 -10 29 -11 56
-1 28 -9 64 -17 80 -23 44 -20 55 14 55 28 0 30 3 30 35 0 22 6 38 14 41 12 5
13 10 3 32 -9 20 -9 26 1 30 17 5 65 109 57 122 -11 17 4 60 20 60 8 0 15 -5
15 -11 0 -5 5 -7 11 -3 7 4 7 9 2 13 -5 3 -12 14 -16 24 -3 9 -13 17 -22 17
-23 0 -18 14 12 28 43 19 62 16 55 -10 -5 -22 -5 -22 12 -5 10 9 23 17 29 17
8 0 7 3 -1 9 -12 7 -12 12 0 31 10 18 10 24 1 27 -7 3 -13 12 -13 22 0 9 -6
26 -14 36 -10 14 -11 25 -5 37 7 14 6 16 -6 12 -16 -7 -20 6 -6 21 5 6 5 19 1
30 -8 19 -9 19 -9 -2 -1 -32 -27 -29 -36 4 -6 25 -8 26 -17 10 -5 -10 -7 -29
-4 -42 5 -20 2 -23 -28 -27 -19 -2 -33 -1 -30 3 2 4 -4 10 -14 13 -30 10 -55
139 -31 163 7 7 2 13 -18 21 -16 5 -49 31 -73 57 -64 68 -83 85 -93 85 -4 0
-5 10 -2 21 5 16 4 19 -5 14 -9 -5 -11 -4 -6 4 4 6 0 18 -8 27 -9 8 -16 24
-16 35 0 11 -4 18 -9 14 -12 -7 -17 1 -26 44 -7 34 -7 34 24 28 37 -8 41 7 9
33 -20 15 -21 21 -10 44 6 14 8 26 4 26 -5 0 -7 14 -4 30 5 32 -2 36 -62 31
-63 -5 -101 24 -60 47 14 8 11 11 -14 20 -17 6 -33 8 -36 5 -3 -4 -15 2 -26
12 -16 14 -17 20 -8 27 9 5 3 8 -14 8 -18 0 -28 5 -28 14 0 8 -8 17 -18 20
-26 9 -112 93 -112 110 0 31 -46 66 -89 69 -23 1 -46 9 -50 16 -5 7 -15 11
-22 9 -8 -3 -21 6 -30 19 -11 16 -19 21 -23 14 -10 -16 -20 -14 -51 13 -15 13
-34 22 -42 19 -7 -3 -13 1 -13 10 0 24 -40 67 -63 68 -17 1 -18 2 -4 6 9 2 17
14 17 26 0 18 -6 22 -29 22 -19 0 -27 -4 -24 -12 8 -20 -58 -16 -109 7 -41 18
-44 22 -41 52 l4 33 -17 -30 c-9 -16 -18 -32 -20 -33 -1 -2 -29 4 -61 13 -57
17 -193 23 -234 10 -26 -9 -24 4 8 37 l26 27 -75 -5 c-54 -5 -87 -2 -121 10
-55 18 -57 19 -58 9z m279 -1068 c67 -8 177 -22 245 -30 67 -9 138 -15 157
-15 88 0 281 -111 401 -230 96 -96 109 -116 140 -221 28 -97 38 -148 48 -244
11 -97 21 -148 32 -156 12 -7 29 -102 29 -159 0 -72 -10 -110 -29 -110 -28 1
-98 37 -98 51 0 31 -57 139 -91 172 -53 51 -104 74 -215 97 -225 46 -367 12
-344 -82 7 -25 9 -25 104 -26 148 -3 282 -20 348 -45 36 -13 105 -68 105 -83
0 -6 12 -16 26 -23 50 -22 18 -21 -87 5 -106 26 -260 56 -292 57 -10 1 -15 7
-13 13 6 16 -86 24 -96 10 -5 -7 -12 -6 -18 4 -9 13 -13 12 -27 -7 -10 -15
-26 -23 -45 -23 -16 0 -41 -8 -55 -17 -19 -13 -46 -18 -93 -17 -72 1 -121 19
-210 78 -30 20 -63 36 -72 36 -10 0 -18 4 -18 9 0 6 -8 10 -17 10 -10 0 -40 3
-68 6 -174 18 -255 23 -377 24 -79 1 -139 5 -143 11 -4 6 5 10 20 10 14 0 24
4 21 9 -17 27 214 50 320 32 94 -16 200 -49 215 -67 6 -8 20 -14 31 -14 10 0
16 -4 13 -10 -13 -21 17 -9 41 17 50 53 42 91 -25 120 -74 31 -268 74 -363 80
-142 9 -206 -10 -294 -88 -37 -32 -73 -59 -80 -59 -7 0 -10 -8 -7 -19 6 -22
-9 -26 -119 -36 -55 -5 -78 -4 -78 4 0 6 4 11 10 11 5 0 7 6 4 14 -3 8 -1 23
5 34 5 10 12 31 15 47 8 46 56 128 100 171 67 67 90 117 90 201 1 40 -2 73 -5
73 -15 0 12 76 42 119 41 57 39 55 179 140 99 61 203 107 275 124 46 11 248 6
363 -8z m-278 -976 c101 -25 156 -53 175 -89 18 -36 22 -200 4 -200 -8 0 -10
18 -6 59 5 47 3 60 -8 65 -8 3 -15 0 -15 -7 0 -7 -7 -4 -15 7 -7 10 -18 16
-22 13 -8 -5 -18 5 -57 58 -6 9 -28 20 -49 25 -32 7 -36 6 -26 -6 17 -21 -4
-18 -51 6 -22 11 -48 20 -60 20 -11 0 -20 5 -20 11 0 7 7 8 18 4 34 -13 77
-18 67 -7 -19 19 -212 54 -258 47 -47 -8 -97 -34 -97 -50 0 -6 -9 -15 -21 -20
-24 -11 -57 -61 -47 -71 4 -3 14 -1 24 4 18 10 26 5 98 -63 34 -32 78 -50 116
-48 19 1 54 2 78 2 23 0 42 5 42 11 0 5 -4 10 -10 10 -5 0 -10 5 -10 10 0 6 9
10 19 10 27 0 51 37 51 77 l0 34 29 -15 c30 -16 91 -86 91 -105 0 -6 9 -11 19
-11 11 0 23 -4 26 -10 7 -12 -19 -53 -28 -44 -3 3 -3 -3 0 -15 6 -25 16 -27
33 -7 6 8 18 12 26 9 8 -3 14 0 14 7 0 6 4 9 9 6 8 -5 5 -47 -6 -76 -4 -8 -5
-19 -4 -23 0 -4 -4 -17 -10 -29 -7 -13 -7 -18 0 -14 5 4 18 31 27 61 12 36 21
52 27 46 7 -7 6 -16 -3 -26 -7 -8 -10 -15 -7 -15 3 0 -7 -24 -23 -52 -16 -29
-33 -52 -39 -51 -6 2 -8 -3 -5 -11 9 -23 -96 -109 -162 -131 -75 -25 -232 -25
-325 1 -85 24 -150 86 -174 164 -15 51 -39 299 -29 309 2 2 4 -7 5 -20 0 -14
10 6 24 46 12 38 28 71 34 73 6 2 19 11 27 20 35 34 368 35 504 1z m-678 -79
c31 -15 45 -71 52 -215 10 -197 58 -274 206 -328 27 -10 -11 -8 -48 2 -45 13
-40 3 11 -19 65 -29 278 -26 415 5 20 5 22 3 13 -14 -6 -11 -11 -41 -11 -66 0
-40 5 -52 31 -76 23 -21 41 -29 68 -28 l36 0 -36 15 c-35 14 -69 64 -69 100 0
28 33 79 85 132 29 29 62 73 75 97 13 24 27 42 32 39 5 -3 3 -13 -4 -22 -11
-13 -11 -14 2 -10 8 2 16 19 17 39 2 27 0 31 -8 19 -9 -12 -10 -11 -4 5 4 11
10 28 12 37 3 10 9 15 14 12 5 -3 6 1 3 9 -8 21 41 124 66 137 34 18 96 3 125
-32 14 -16 25 -36 25 -43 0 -45 32 -249 45 -286 9 -24 31 -66 49 -94 19 -27
37 -60 40 -72 9 -30 -18 -79 -54 -98 -42 -22 -37 -28 7 -10 42 18 51 28 60 68
3 15 11 27 17 27 6 0 67 -12 136 -25 152 -30 268 -32 325 -6 77 35 148 131
206 279 17 45 34 81 35 79 2 -2 -3 -30 -11 -61 -9 -32 -15 -68 -14 -80 5 -54
-1 -97 -13 -90 -8 5 -9 2 -5 -9 3 -10 2 -17 -3 -17 -6 0 -10 -12 -10 -28 0
-15 -5 -43 -10 -62 -19 -62 -31 -133 -36 -200 -5 -71 -24 -138 -60 -214 -13
-27 -21 -53 -17 -59 3 -6 1 -7 -5 -3 -11 6 -17 -12 -13 -36 0 -5 -2 -8 -7 -8
-4 0 -13 -12 -19 -27 -7 -16 -26 -43 -42 -62 -16 -19 -37 -52 -47 -73 -10 -23
-23 -37 -30 -34 -13 5 -29 -21 -25 -42 1 -8 -5 -12 -16 -10 -12 2 -18 -3 -17
-15 2 -13 -1 -15 -11 -7 -10 8 -17 6 -28 -11 -9 -11 -20 -18 -25 -15 -6 3 -13
0 -16 -6 -3 -7 -3 -3 0 10 5 20 3 21 -20 12 -17 -6 -26 -6 -26 0 0 5 -15 1
-34 -10 -32 -17 -35 -17 -41 -2 -5 15 -9 14 -25 -8 -11 -14 -20 -22 -20 -17 0
4 -13 1 -28 -7 -18 -9 -33 -11 -43 -5 -12 6 -22 1 -39 -18 -17 -20 -24 -23
-30 -12 -7 11 -12 10 -28 -4 -14 -13 -21 -14 -30 -5 -9 9 -12 7 -12 -10 0 -26
-17 -29 -23 -4 -4 14 -6 14 -12 -5 l-7 -23 -30 21 -29 21 -20 -20 c-10 -12
-19 -27 -20 -34 0 -7 -4 -3 -9 10 -11 25 -30 30 -30 7 0 -14 -10 -18 -27 -12
-5 1 -7 9 -5 17 2 9 0 11 -5 5 -4 -5 -20 -11 -36 -13 -22 -2 -29 3 -38 25 -8
19 -13 23 -16 13 -13 -43 -16 -45 -23 -20 -5 16 -8 19 -9 8 -1 -21 -12 -23
-29 -6 -9 9 -12 9 -12 -2 -1 -13 -2 -13 -13 0 -24 29 -73 48 -93 37 -10 -5
-16 -7 -12 -2 8 8 -15 35 -30 35 -6 0 -12 -6 -14 -12 -3 -8 -9 -4 -17 10 -11
20 -15 21 -28 10 -13 -10 -17 -10 -20 0 -3 6 -11 12 -19 12 -13 0 -19 13 -15
34 1 5 -10 1 -24 -8 -26 -17 -27 -17 -20 4 4 14 3 20 -2 17 -6 -4 -31 14 -57
38 -28 25 -53 42 -62 38 -8 -3 -14 1 -14 9 0 8 -9 24 -19 35 -11 12 -19 23
-18 25 1 2 -4 -3 -10 -11 -13 -15 -14 -14 -17 12 -2 22 -30 13 -37 -13 -4 -14
-7 -19 -8 -11 -1 11 -6 10 -22 -5 -16 -15 -22 -16 -29 -5 -4 8 -6 25 -4 38 2
12 0 23 -6 23 -5 0 -10 -3 -11 -7 -4 -45 -19 -69 -19 -32 0 34 -15 53 -34 46
-11 -5 -20 1 -28 18 -6 14 -15 25 -20 25 -4 0 -8 11 -8 24 0 14 -4 27 -9 30
-4 3 -19 33 -31 66 -12 33 -27 60 -32 60 -6 0 -8 7 -4 15 7 18 -16 115 -27
115 -4 0 -5 5 -2 11 10 15 -4 61 -16 53 -8 -4 -10 12 -7 50 3 53 -4 71 -16 44
-3 -7 -5 -4 -3 7 1 11 14 25 28 32 33 16 52 88 41 158 -10 60 -9 150 2 188 7
24 5 27 -15 28 -13 0 -18 3 -11 6 27 11 40 57 35 124 -4 44 -2 69 6 73 22 14
10 46 -32 88 -24 24 -46 54 -50 67 -6 23 -5 23 52 18 32 -3 69 -11 83 -17z
m1353 -29 c-3 -5 -19 -13 -37 -16 -41 -10 -55 -24 -50 -52 2 -13 -1 -23 -7
-23 -6 0 -17 -13 -25 -29 l-15 -29 47 -11 c83 -21 88 -21 54 -6 -41 19 -39 41
7 72 45 30 51 29 45 -9 -3 -18 -1 -45 5 -60 8 -22 18 -28 56 -34 40 -5 49 -3
71 17 18 17 24 33 24 67 l0 45 32 -25 c67 -52 63 -85 -13 -105 -31 -8 -36 -12
-19 -12 14 -1 38 -8 53 -16 20 -10 34 -12 48 -5 10 6 28 15 39 20 26 13 47 2
87 -44 50 -59 132 -89 134 -48 0 14 2 14 9 -3 7 -19 8 -19 15 -2 7 17 -19 59
-34 54 -10 -2 -55 25 -64 39 -4 8 -13 14 -20 14 -18 1 -48 29 -93 90 -36 48
-48 57 -95 69 -30 7 -67 15 -84 17 -16 2 -52 7 -80 12 -46 7 -48 9 -22 15 15
4 32 5 37 2 5 -3 37 -9 72 -14 100 -13 260 -51 299 -72 54 -27 97 -75 105
-116 4 -19 4 -65 1 -100 -13 -133 -129 -310 -224 -340 -79 -24 -224 -13 -350
28 -105 34 -135 71 -172 210 -21 83 -21 86 -21 187 0 112 34 167 126 202 58
21 67 23 59 11z m770 -335 c16 -24 12 -77 -15 -183 -6 -24 -5 -30 6 -26 18 7
3 -45 -27 -93 -28 -45 -33 -39 -14 17 13 39 13 42 0 25 -8 -11 -16 -29 -16
-40 -3 -40 -5 -51 -13 -71 -27 -69 -35 -95 -28 -95 4 0 2 -4 -4 -8 -5 -4 -18
-28 -28 -54 -9 -25 -23 -51 -30 -57 -13 -11 6 81 55 264 11 39 26 122 34 185
9 63 20 125 25 138 12 29 36 28 55 -2z m158 -83 c-7 -2 -13 -9 -13 -14 0 -15
77 -10 93 6 11 11 26 12 58 7 49 -8 59 -30 22 -47 -13 -5 -23 -17 -23 -26 0
-10 -16 -23 -40 -33 -42 -17 -53 -36 -21 -36 44 0 33 -38 -18 -63 -23 -11 -26
-18 -27 -70 -2 -63 -20 -99 -30 -59 -4 12 -10 22 -15 22 -5 0 -9 18 -9 40 0
33 3 40 20 40 17 0 20 7 20 41 0 48 -8 45 -52 -19 -17 -26 -42 -57 -55 -69
l-23 -22 2 41 c2 24 11 50 21 61 11 11 17 27 14 38 -4 13 3 24 24 36 33 19 38
39 12 46 -10 3 -4 5 14 6 39 1 63 10 63 23 0 5 -17 8 -37 6 -22 -2 -38 2 -40
9 -6 16 18 42 37 42 10 0 11 -2 3 -6z m197 -453 c0 -17 -9 -49 -20 -72 -11
-22 -17 -45 -14 -50 12 -19 -6 -58 -26 -58 -17 0 -18 -3 -9 -19 24 -37 -15
-76 -52 -52 -12 7 -19 7 -19 1 0 -5 -7 -10 -16 -10 -9 0 -14 7 -12 17 2 9 8
16 13 15 6 0 13 8 18 20 4 11 16 22 27 25 38 10 2 30 -56 32 l-55 1 6 -38 c4
-20 9 -45 12 -54 3 -13 -2 -18 -17 -18 -17 0 -20 4 -15 18 15 35 17 62 5 62
-15 0 -40 25 -40 40 0 14 20 34 41 42 13 5 16 2 12 -13 -4 -15 0 -19 21 -19
26 0 33 10 19 24 -4 4 -8 15 -8 24 0 10 -8 17 -19 17 -10 0 -22 10 -27 23 -8
22 4 31 16 12 4 -6 21 -8 42 -4 32 6 35 5 33 -17 -5 -55 -2 -59 40 -59 33 0
40 3 40 19 0 11 5 23 10 26 6 3 10 21 10 39 0 30 15 56 32 56 4 0 8 -14 8 -30z
m23 -354 c-8 -12 17 -26 47 -26 14 0 31 -9 38 -20 12 -20 10 -20 -43 -18 -47
3 -54 5 -49 21 4 13 0 17 -21 17 -28 0 -44 -25 -26 -43 17 -17 13 -27 -9 -27
-11 0 -20 7 -20 16 0 12 -9 15 -37 13 -66 -4 -123 1 -123 10 0 6 19 11 43 13
35 2 43 7 45 26 4 24 12 28 28 12 7 -7 17 -5 30 5 20 15 106 17 97 1z m-483
-155 c0 -5 14 -23 31 -40 17 -17 35 -31 40 -31 17 0 9 -22 -16 -42 -14 -11
-25 -24 -25 -29 0 -5 11 -9 25 -9 23 0 25 -4 25 -40 l0 -40 40 0 40 0 0 -40
c0 -30 -4 -40 -16 -40 -17 0 -14 -22 4 -28 7 -2 12 4 12 13 0 13 10 15 58 13
l57 -3 13 -85 c11 -76 11 -86 -4 -97 -9 -6 -22 -9 -30 -6 -8 3 -14 0 -14 -6 0
-6 7 -11 15 -11 9 0 15 -9 15 -25 0 -13 7 -30 16 -37 47 -39 54 -50 54 -84 0
-45 -19 -64 -62 -63 l-33 1 33 10 c35 12 39 20 17 38 -24 20 -55 3 -55 -31 0
-27 2 -29 43 -29 l42 0 -29 -15 c-15 -8 -36 -15 -45 -16 -10 0 -11 -2 -3 -6
13 -5 17 -43 5 -43 -5 0 -18 -3 -31 -6 -17 -5 -21 -3 -16 9 8 23 -9 28 -40 12
-21 -11 -33 -12 -48 -4 -11 6 -42 9 -69 7 -27 -1 -49 0 -49 3 0 9 -77 49 -83
43 -3 -3 -16 -2 -29 2 -22 7 -22 7 -3 16 17 7 17 8 -4 4 -46 -9 -77 4 -94 40
-9 19 -22 34 -28 34 -6 0 -9 7 -6 15 4 8 2 17 -2 20 -5 3 -7 14 -4 25 3 11 0
20 -6 20 -6 0 -11 -8 -11 -17 -1 -10 -12 10 -27 44 -14 35 -29 60 -34 57 -11
-6 -11 -1 -3 20 3 9 10 14 15 11 4 -3 24 1 44 9 19 8 35 13 35 10 0 -3 9 4 21
15 12 11 34 25 50 31 16 7 29 16 29 20 0 4 14 23 31 41 17 18 31 41 32 51 1
10 5 18 10 18 5 0 7 14 5 30 -3 17 -1 30 4 30 4 0 8 13 8 29 0 16 6 32 13 34
17 7 -59 77 -84 77 -22 0 -26 28 -4 36 8 4 22 1 30 -6 13 -11 15 -8 15 19 0
30 2 31 40 31 22 0 40 -4 40 -9z m-2029 -78 c40 -43 87 -83 133 -115 17 -12
37 -28 44 -35 8 -7 22 -18 33 -24 11 -6 17 -15 13 -22 -4 -7 -4 -9 1 -5 8 8
61 -16 82 -37 7 -7 18 -16 25 -18 10 -4 9 -8 -2 -16 -15 -11 -13 -12 25 -15
30 -3 56 -17 49 -27 -3 -5 2 -9 11 -9 8 0 32 -11 53 -24 20 -12 41 -23 46 -24
5 0 13 -6 17 -14 7 -10 9 -10 9 0 0 8 8 5 22 -8 12 -11 28 -20 35 -20 23 0 14
-19 -12 -26 -15 -4 -32 -1 -40 6 -8 7 -15 9 -15 5 0 -4 -12 4 -27 19 -18 18
-33 25 -47 21 -14 -4 -17 -3 -8 3 9 6 1 12 -28 22 -22 7 -47 21 -56 32 -10 10
-28 18 -41 18 -12 0 -23 4 -23 10 0 5 -15 16 -32 24 -57 26 -111 63 -157 106
-9 9 -40 33 -68 55 -29 22 -53 43 -53 48 0 5 -7 7 -14 4 -10 -4 -13 -1 -10 8
3 7 -2 24 -10 38 -15 22 -13 57 3 57 4 0 23 -17 42 -37z m2742 -743 c15 0 27
-4 27 -10 0 -5 -4 -10 -10 -10 -5 0 -10 -9 -10 -19 0 -11 -4 -23 -10 -26 -5
-3 -10 -13 -10 -22 0 -9 -7 -21 -17 -28 -14 -11 -13 -13 12 -19 38 -10 73 -46
45 -46 -6 0 -21 9 -33 20 -26 25 -73 24 -69 -1 2 -12 -5 -15 -30 -11 -18 3
-27 7 -20 9 15 6 16 24 1 21 -13 -4 -21 63 -9 82 11 19 19 10 22 -23 1 -15 6
-27 10 -27 7 0 12 39 9 68 -1 6 3 12 9 12 5 0 10 19 10 43 l1 42 22 -27 c15
-18 32 -28 50 -28z"/>
<path d="M5457 7146 c-6 -15 40 -48 84 -61 13 -3 45 -17 70 -30 l46 -24 38 19
c22 11 55 20 75 20 19 0 52 5 73 11 38 10 38 11 21 30 -22 25 -67 24 -124 -3
-25 -12 -48 -20 -52 -20 -5 1 -8 -2 -8 -8 0 -5 -9 -2 -20 8 -12 9 -24 17 -28
18 -18 2 -41 17 -37 24 6 9 -64 30 -103 30 -17 0 -32 -6 -35 -14z"/>
<path d="M5511 6966 c-7 -9 -24 -16 -37 -16 -12 0 -26 -5 -30 -11 -3 -6 -19
-9 -34 -6 -43 9 -185 -37 -173 -56 4 -6 0 -8 -10 -4 -9 3 -19 2 -22 -3 -4 -6
-15 -10 -25 -10 -33 0 -86 -38 -103 -75 -24 -51 -22 -60 18 -62 19 -2 35 1 35
7 0 9 47 44 101 76 11 6 27 17 36 25 27 21 61 39 75 39 7 0 25 6 39 14 14 7
45 13 69 13 29 0 45 5 48 14 3 8 11 22 19 31 8 9 13 22 11 29 -2 7 -8 6 -17
-5z"/>
<path d="M5820 6945 c0 -9 -6 -12 -15 -9 -9 4 -15 1 -15 -7 1 -18 29 -68 30
-51 0 19 37 -8 44 -33 5 -16 8 -17 15 -6 7 11 15 9 40 -10 18 -13 44 -39 58
-57 15 -20 31 -31 39 -28 21 8 66 -66 72 -119 3 -30 11 -49 23 -55 40 -22 50
101 14 171 -20 37 -57 73 -125 118 -30 20 -75 51 -99 69 -47 34 -81 41 -81 17z"/>
<path d="M5816 6803 c-11 -11 -7 -19 21 -47 14 -14 23 -30 19 -34 -7 -7 -88
-13 -186 -13 -25 0 -46 5 -48 11 -6 18 -54 33 -63 19 -4 -7 -12 -8 -20 -3 -8
5 -48 8 -89 7 -53 -1 -69 1 -52 7 22 10 31 30 11 30 -5 0 -7 5 -4 10 9 14 -7
12 -41 -4 -86 -41 -106 -47 -140 -44 -50 4 -54 -15 -7 -31 21 -8 67 -31 103
-53 65 -39 166 -75 177 -64 4 3 -1 6 -10 6 -9 0 -17 7 -17 15 0 9 -6 12 -15 9
-8 -4 -15 -1 -15 5 0 6 -8 11 -17 11 -10 1 -29 7 -43 16 -25 15 -25 15 9 8 23
-4 31 -3 27 5 -4 5 -22 13 -41 17 -19 3 -35 10 -35 15 0 12 147 11 190 -1 56
-16 162 -27 303 -31 9 0 15 -4 13 -8 -3 -5 7 -6 22 -4 24 4 25 3 9 -7 -11 -7
-29 -10 -41 -8 -14 3 -23 0 -23 -9 0 -7 6 -13 14 -13 7 0 13 -5 13 -11 0 -6
-12 -9 -27 -8 -16 1 -39 -1 -53 -6 -14 -5 -34 -8 -45 -6 -16 3 -17 1 -6 -13
22 -27 114 -13 197 30 59 30 78 36 108 30 20 -4 36 -11 36 -15 0 -5 7 -11 15
-15 9 -3 15 0 15 10 0 8 -12 19 -26 24 -14 6 -51 29 -82 53 -32 24 -70 51 -87
62 -16 10 -37 27 -46 36 -9 10 -19 16 -23 12z"/>
<path d="M5476 6510 c-17 -6 -18 -7 -3 -13 9 -3 17 -15 17 -25 0 -20 34 -55
63 -65 9 -4 20 -20 23 -37 4 -17 10 -32 14 -35 16 -10 49 9 54 31 4 16 20 30
44 41 24 10 44 27 51 45 17 38 16 40 -59 54 -44 8 -184 12 -204 4z"/>
<path d="M3382 7469 c-24 -19 -24 -19 -6 -64 15 -42 16 -49 1 -85 -10 -26 -11
-40 -4 -43 6 -2 10 -20 9 -40 -2 -40 11 -45 39 -13 16 20 16 19 28 -2 19 -36
31 -25 31 28 0 37 -4 50 -14 50 -8 0 -21 9 -29 20 -8 11 -17 17 -20 13 -4 -3
-7 8 -7 26 0 18 4 30 10 26 5 -3 14 9 19 27 5 18 10 25 10 16 1 -21 21 -24 21
-4 0 8 -4 18 -10 21 -5 3 -10 16 -10 28 0 17 -2 19 -9 8 -7 -11 -13 -12 -23
-4 -10 8 -19 6 -36 -8z"/>
<path d="M8690 7470 c-11 -11 -20 -27 -20 -35 0 -8 -9 -19 -20 -25 -11 -6 -20
-7 -19 -3 4 21 -3 33 -17 33 -14 0 -14 -3 -4 -15 16 -19 7 -19 -33 0 -31 15
-31 15 8 -19 22 -20 44 -36 48 -36 4 0 -1 -10 -12 -21 -17 -18 -18 -24 -6 -35
17 -18 25 -18 25 -1 0 8 9 22 20 32 20 18 20 17 20 -23 0 -26 -5 -42 -13 -44
-10 -2 -9 -8 6 -23 19 -19 20 -19 13 -1 -4 12 0 26 10 37 24 26 37 24 23 -3
-12 -22 -11 -22 8 -6 11 10 23 14 29 9 5 -5 22 0 39 11 l30 19 -33 -6 c-25 -5
-38 -2 -53 11 -10 9 -19 20 -19 23 0 11 63 11 76 0 8 -7 14 -7 19 1 3 5 1 10
-4 10 -6 0 -11 18 -11 40 0 30 -4 40 -16 40 -13 0 -14 3 -5 14 10 12 8 17 -8
25 -30 17 -59 13 -81 -9z"/>
<path d="M3235 7180 c-4 -6 -5 -27 -3 -48 3 -35 1 -37 -24 -35 -23 1 -27 -2
-26 -28 1 -16 5 -29 10 -29 4 0 8 -10 8 -22 -1 -21 -2 -21 -11 -5 -15 25 -23
21 -44 -20 -18 -38 -18 -38 -26 -13 -6 22 -7 22 -8 4 -1 -26 74 -104 101 -104
11 0 18 -5 16 -12 -7 -19 -24 -20 -41 -3 -9 8 -33 16 -54 17 -28 1 -46 9 -68
32 -25 26 -37 30 -67 28 -31 -3 -38 -7 -38 -24 0 -16 -4 -19 -20 -14 -11 3
-29 9 -40 12 -17 5 -19 2 -18 -30 1 -39 26 -66 60 -66 21 0 24 -16 6 -23 -10
-4 -10 -6 0 -6 6 -1 12 -10 12 -22 0 -17 -4 -20 -24 -15 -15 4 -28 0 -36 -9
-7 -8 -9 -15 -4 -15 5 0 2 -5 -6 -10 -8 -5 -26 -7 -40 -4 -21 5 -22 4 -7 -6 9
-6 17 -18 17 -27 0 -15 57 -72 72 -73 4 0 12 8 17 18 8 14 10 10 11 -20 0 -23
-5 -38 -12 -38 -6 0 -8 -3 -4 -7 4 -4 23 -6 43 -5 25 2 43 -3 59 -19 21 -20
23 -28 17 -81 -5 -46 -3 -62 8 -69 12 -8 12 -10 0 -18 -7 -5 -10 -14 -6 -20 5
-9 11 -9 23 1 14 11 15 10 9 -5 -4 -10 -7 -20 -7 -23 0 -2 -6 -1 -14 2 -12 5
-13 -1 -1 -38 11 -37 11 -47 -1 -63 -17 -23 -18 -65 -3 -65 7 0 17 7 23 15 9
12 18 13 51 4 24 -7 34 -14 25 -17 -8 -3 -20 -12 -26 -21 -6 -8 -33 -18 -60
-22 -47 -6 -47 -6 -11 -8 21 0 45 -8 53 -16 9 -8 12 -15 7 -15 -4 -1 3 -7 17
-15 48 -28 55 -21 80 73 13 48 29 96 36 107 8 11 14 32 14 47 0 16 4 28 9 28
6 0 18 14 28 31 23 40 89 69 154 69 l49 0 0 -50 0 -50 -39 0 c-40 0 -40 0 -43
43 l-3 42 -14 -27 c-9 -17 -23 -28 -35 -28 -36 -1 -66 -34 -66 -74 0 -35 1
-36 39 -36 21 0 66 -3 100 -6 l61 -7 0 47 0 46 40 0 c29 0 40 -4 40 -15 0 -18
5 -19 28 -4 13 8 16 21 13 55 -3 39 -1 44 18 44 15 0 21 -6 21 -22 l0 -23 18
23 18 23 12 -26 c7 -14 12 -37 12 -52 0 -20 4 -24 18 -18 9 4 29 11 44 15 15
5 37 18 49 29 l22 20 -27 12 c-27 13 -33 24 -16 34 6 3 10 1 10 -4 0 -6 7 -11
15 -11 8 0 25 -6 36 -12 17 -10 23 -10 26 0 6 15 80 16 85 2 4 -12 68 7 68 20
0 5 -7 15 -15 24 -8 8 -15 22 -15 30 0 9 -6 16 -14 16 -8 0 -16 7 -20 15 -7
19 -86 21 -86 3 0 -8 -6 -6 -17 5 -16 16 -16 18 0 34 11 11 17 13 17 5 0 -7
16 -12 41 -12 38 0 41 2 35 23 -3 12 -6 25 -6 30 0 14 -30 7 -30 -8 0 -8 -3
-15 -7 -15 -13 0 -33 53 -25 64 5 6 6 26 3 44 l-6 34 -28 -24 c-18 -15 -26
-30 -22 -40 4 -10 -2 -22 -14 -30 -18 -13 -19 -17 -6 -35 13 -18 13 -22 0 -33
-12 -10 -15 -9 -15 4 0 10 -9 16 -25 16 -14 0 -25 -4 -25 -10 0 -5 5 -10 10
-10 6 0 10 -13 10 -30 0 -16 -4 -30 -10 -30 -5 0 -10 -11 -10 -24 0 -31 -10
-56 -21 -56 -5 0 -9 7 -9 15 0 9 -14 22 -31 29 -24 10 -28 15 -18 22 10 6 8
10 -11 15 l-25 7 28 1 c44 2 31 18 -20 25 -37 5 -51 3 -59 -9 -17 -23 -26 -18
-22 13 2 16 12 31 26 37 23 10 30 25 12 25 -20 0 -9 37 15 50 34 18 32 27 -11
45 -45 18 -44 18 -44 0 0 -23 -30 -18 -56 11 -19 20 -24 36 -24 77 1 30 7 60
15 71 20 26 20 85 0 92 -8 4 -15 15 -15 26 0 12 -8 27 -17 34 -17 13 -17 13 0
14 56 1 -44 40 -104 40 -10 0 -19 5 -19 10 0 6 -11 10 -25 10 -13 0 -36 5 -50
12 l-26 12 23 18 23 18 -22 0 c-13 0 -23 5 -23 11 0 19 -38 60 -45 49z"/>
<path d="M8320 7160 c0 -19 -4 -21 -32 -15 -18 4 -38 12 -45 17 -8 6 -10 4 -6
-11 4 -14 -1 -20 -19 -24 -18 -3 -16 -5 10 -6 31 -1 44 -22 22 -36 -5 -3 -10
-15 -10 -26 0 -22 29 -26 48 -7 9 9 12 9 12 0 0 -7 9 -12 20 -12 27 0 25 -17
-2 -26 -19 -6 -14 -9 27 -15 27 -5 51 -12 53 -17 6 -18 67 9 79 34 11 23 10
24 -33 24 -25 0 -44 5 -44 11 0 6 -11 20 -25 31 -28 22 -32 46 -10 54 19 8 20
34 1 34 -8 0 -21 3 -30 6 -12 4 -16 0 -16 -16z"/>
<path d="M2709 6517 c-1 -1 -3 -18 -4 -38 -1 -20 -11 -50 -23 -66 -11 -16 -26
-52 -33 -79 -6 -27 -16 -57 -21 -68 -7 -12 -7 -21 0 -25 5 -3 11 -28 14 -56 3
-27 3 -44 1 -37 -5 13 -133 18 -133 5 0 -3 7 -14 15 -23 12 -13 27 -16 65 -12
33 3 50 1 50 -7 0 -19 18 -12 25 10 9 27 38 20 45 -11 6 -25 7 -25 128 -28 99
-2 122 -5 122 -17 0 -19 14 -19 30 0 10 13 9 15 -9 15 -17 0 -21 6 -21 35 0
34 1 35 39 35 37 0 40 2 39 29 -1 27 -4 29 -28 24 -21 -4 -31 0 -44 19 -11 16
-26 23 -49 23 -31 0 -32 1 -35 48 -2 26 -7 47 -13 47 -5 0 -9 9 -9 20 0 13 -7
20 -19 20 -23 0 -47 25 -31 35 6 3 8 11 5 16 -10 16 -23 10 -28 -13 -2 -14 -5
-7 -6 16 -1 51 -9 43 -16 -17 -5 -42 -4 -47 15 -47 11 0 20 -4 20 -10 0 -5 -9
-10 -20 -10 -11 0 -20 -7 -20 -15 0 -8 -9 -15 -20 -15 -14 0 -20 7 -20 22 0
21 -1 21 -14 3 -13 -18 -14 -17 -21 14 -9 40 2 53 22 26 15 -19 15 -19 8 10
-5 24 -4 28 6 18 21 -21 29 -15 29 22 0 36 -15 48 -23 18 -3 -10 -4 -4 -4 12
1 17 5 33 10 36 5 3 2 9 -7 12 -9 4 -17 5 -17 4z"/>
<path d="M4160 6180 c0 -17 7 -20 40 -20 l40 0 0 -40 0 -40 -80 0 c-73 0 -80
2 -80 20 0 17 -7 20 -40 20 -33 0 -40 -3 -40 -20 0 -13 -7 -20 -20 -20 -17 0
-20 7 -20 40 l0 40 -40 0 c-38 0 -40 -2 -40 -30 0 -24 -4 -30 -20 -30 -14 0
-20 -6 -18 -17 2 -12 -4 -19 -19 -21 -21 -3 -23 0 -23 47 0 44 -3 51 -19 51
-11 0 -21 -6 -24 -12 -2 -7 -2 -3 0 10 2 12 0 22 -5 22 -17 0 -62 -25 -62 -35
0 -5 -16 -21 -36 -35 -20 -13 -31 -26 -25 -28 15 -5 14 -79 -1 -85 -7 -2 27
-2 75 0 86 4 88 4 78 -16 -8 -14 -8 -22 0 -26 15 -10 22 1 22 35 0 22 5 30 18
30 9 0 19 -6 22 -12 4 -14 37 55 37 78 0 8 9 14 20 14 11 0 20 -4 20 -10 0 -5
6 -10 14 -10 39 0 28 -41 -19 -70 -32 -20 -54 -55 -42 -67 3 -2 15 5 26 16 16
16 21 17 21 6 0 -11 11 -15 39 -15 29 0 40 -4 43 -17 2 -13 16 -17 60 -20 52
-3 56 -2 51 17 -5 18 0 20 40 20 46 0 70 -16 47 -30 -9 -5 -9 -9 -1 -14 6 -4
11 -2 11 3 0 6 12 11 26 11 36 0 29 34 -9 38 l-28 3 25 20 c14 11 30 18 35 14
18 -11 61 7 61 25 0 10 7 23 15 30 8 7 15 16 15 21 0 5 -7 9 -15 9 -11 0 -15
11 -15 40 0 39 -1 40 -34 40 -19 0 -55 9 -80 20 -46 19 -46 19 -46 0z"/>
<path d="M3170 5819 c0 -11 -4 -18 -9 -15 -5 3 -12 -5 -15 -19 -7 -29 -26 -34
-27 -7 0 13 -2 14 -6 2 -3 -8 -9 -17 -13 -20 -4 -3 -12 -43 -17 -90 -10 -78
-9 -87 8 -105 19 -20 20 -20 49 12 17 18 30 36 30 42 0 5 8 16 18 23 11 8 19
27 19 48 2 48 19 90 38 90 8 0 15 -4 15 -10 0 -5 -5 -10 -11 -10 -5 0 -7 -5
-4 -10 9 -14 45 27 45 50 0 25 -10 30 -31 17 -14 -9 -22 -8 -37 6 -26 24 -52
22 -52 -4z"/>
<path d="M3580 5834 c0 -3 17 -21 38 -40 35 -33 36 -35 12 -33 -42 2 -50 0
-50 -16 0 -8 -5 -26 -12 -40 l-12 -26 -23 28 -23 28 -24 -27 c-26 -29 -42 -35
-48 -18 -1 5 -13 -2 -25 -16 l-22 -25 37 7 c20 4 40 11 43 16 4 6 15 8 25 6
15 -3 11 -8 -18 -22 -21 -10 -38 -22 -38 -27 0 -17 26 -9 56 19 23 20 43 28
77 29 26 2 47 0 47 -3 0 -13 -30 -34 -49 -34 -12 0 -21 -6 -21 -15 0 -11 7
-14 25 -9 15 4 25 2 25 -5 0 -6 14 -11 31 -11 25 0 29 3 24 19 -8 25 18 46 34
27 8 -10 9 -16 1 -21 -18 -11 -11 -25 13 -25 32 0 89 29 84 43 -2 7 -15 12
-28 12 -17 0 -24 6 -24 20 0 16 -7 20 -28 18 -31 -2 -38 26 -11 48 14 12 14
14 -3 20 -17 7 -17 8 0 8 10 1 15 6 12 11 -4 6 -15 8 -25 5 -12 -4 -26 4 -43
25 -23 26 -57 41 -57 24z"/>
<path d="M7728 5789 c-10 -10 -18 -23 -18 -29 0 -5 -10 -18 -21 -29 -12 -11
-19 -26 -16 -34 4 -10 -2 -13 -21 -11 -15 2 -19 1 -9 -2 12 -4 17 -16 17 -45
0 -21 -4 -39 -10 -39 -6 0 -10 -33 -10 -80 l0 -80 -45 0 c-25 0 -45 -4 -45 -9
0 -21 54 -51 91 -51 22 0 39 -4 39 -9 0 -4 24 -11 53 -15 28 -3 65 -9 80 -12
25 -6 28 -4 25 12 -4 19 -3 19 -115 23 -31 1 -43 5 -43 16 0 11 11 15 40 15
29 0 40 4 40 15 0 9 9 15 25 15 14 0 25 5 25 10 0 14 27 12 33 -2 4 -10 8 -9
16 2 8 11 7 18 -4 26 -8 6 -12 19 -8 32 3 13 1 22 -6 22 -6 0 -10 -6 -8 -12 4
-21 -38 -20 -58 2 -10 11 -30 20 -44 20 -44 0 -56 14 -37 41 20 29 20 39 1 39
-8 0 -15 9 -15 20 0 11 7 20 15 20 8 0 15 5 15 10 0 6 7 10 15 10 10 0 15 10
16 28 1 33 17 78 18 50 1 -18 12 -23 23 -12 7 6 -21 64 -30 63 -4 0 -15 -9
-24 -20z"/>
<path d="M4204 5411 c-49 -46 -88 -106 -79 -121 4 -6 2 -9 -5 -8 -9 3 -22 -16
-53 -77 -7 -13 -6 -20 2 -23 17 -6 13 -29 -6 -44 -10 -7 -20 -22 -21 -33 -2
-11 -8 -23 -14 -26 -13 -8 -38 -58 -38 -77 0 -9 15 2 38 28 49 58 102 133 102
145 0 5 7 23 16 40 8 16 13 40 9 52 -6 24 11 62 33 76 6 4 12 14 12 22 0 7 4
15 8 17 12 5 54 68 45 68 -4 0 -26 -18 -49 -39z"/>
<path d="M3665 5267 c-163 -100 -245 -161 -328 -243 -91 -89 -97 -104 -41
-106 37 -1 120 56 128 88 4 13 11 24 16 24 6 0 10 7 10 15 0 8 7 15 15 15 8 0
19 9 25 20 6 10 32 34 58 51 83 57 195 156 190 170 -2 5 -35 -10 -73 -34z"/>
<path d="M2194 4938 c7 -13 16 -35 20 -50 7 -31 18 -35 38 -15 8 9 21 11 33 6
20 -8 20 -8 0 -8 -19 -1 -52 -38 -42 -48 9 -9 77 29 77 43 0 18 18 18 36 0 16
-17 19 -46 4 -46 -23 0 -8 -19 18 -23 15 -2 4 -5 -25 -6 -111 -3 -114 -31 -3
-31 l80 0 0 40 c0 29 -4 40 -15 40 -9 0 -15 9 -15 24 0 20 4 22 26 18 l27 -5
-24 33 c-16 21 -25 27 -27 17 -5 -23 -103 -29 -152 -10 -22 9 -40 22 -40 30 0
7 -7 13 -15 13 -14 0 -14 -3 -1 -22z"/>
<path d="M5420 4931 c0 -11 -9 -22 -20 -26 -28 -9 -54 -49 -85 -135 -27 -72
-28 -83 -29 -280 -1 -113 -6 -415 -11 -671 -9 -494 6 -990 45 -1539 5 -69 12
-204 15 -300 8 -200 9 -208 30 -190 11 9 12 16 5 25 -15 18 -2 43 23 47 18 2
22 9 20 38 -1 19 -5 96 -9 170 -4 74 -10 137 -14 140 -9 6 -13 41 -10 85 1 25
3 27 9 10 13 -33 20 191 11 331 -5 71 -9 173 -10 226 0 53 -5 119 -12 147 -10
44 -9 57 5 86 15 30 15 49 7 131 -6 53 -12 119 -15 147 -3 29 -7 115 -10 192
-2 77 -9 185 -16 240 -18 150 -16 282 7 525 8 80 19 195 25 255 14 151 27 230
49 297 10 31 16 59 13 62 -12 12 -23 6 -23 -13z"/>
<path d="M5545 4668 c-10 -34 -16 -82 -21 -173 -5 -78 -11 -109 -29 -140 -44
-77 -89 -475 -54 -475 5 0 9 18 9 40 0 22 9 75 20 118 18 68 33 98 90 189 18
28 5 43 -14 17 -26 -35 -30 -5 -8 59 15 44 21 86 21 149 0 52 7 111 17 148 15
53 15 63 3 71 -19 12 -29 11 -34 -3z"/>
<path d="M8130 4596 c-16 -25 -30 -51 -30 -58 0 -8 -7 -23 -15 -34 -8 -10 -20
-37 -26 -59 -11 -40 -66 -185 -98 -260 -10 -22 -25 -58 -33 -80 -15 -35 -55
-198 -88 -355 -7 -30 -22 -91 -35 -135 -41 -136 -117 -555 -88 -485 3 8 14 25
25 36 13 15 24 52 34 120 8 55 19 115 24 134 15 58 28 116 71 305 23 99 49
216 59 260 27 118 61 215 107 300 41 77 55 105 83 171 16 39 31 91 34 117 2
25 7 50 11 56 3 6 4 11 1 11 -3 0 -19 -20 -36 -44z"/>
<path d="M3606 4312 c-4 -7 -9 -118 -7 -165 1 -13 6 -17 20 -12 23 7 31 -4 37
-53 3 -20 7 -51 9 -68 2 -17 13 -54 24 -83 23 -56 27 -91 11 -91 -19 0 -10
-31 13 -40 15 -6 17 -9 6 -9 -22 -1 -32 -63 -13 -74 8 -4 13 -22 13 -40 -1
-18 -3 -24 -6 -14 -5 20 -19 22 -27 5 -3 -7 -3 -3 0 10 3 12 1 22 -5 22 -6 0
-11 -5 -11 -12 0 -22 41 -182 53 -206 6 -13 10 -37 9 -53 -1 -16 3 -29 9 -29
6 0 9 9 6 20 -3 13 0 20 9 20 8 0 14 7 14 15 0 8 5 15 10 15 6 0 10 9 10 19 0
28 34 16 47 -17 10 -26 11 -26 12 -4 1 12 -6 39 -14 59 -8 19 -15 48 -15 63 0
16 -11 51 -25 78 -27 53 -32 77 -14 66 6 -3 14 -1 18 5 10 16 -4 112 -22 152
-8 19 -18 48 -20 64 -3 17 -10 57 -16 90 -5 33 -12 86 -14 117 -3 33 -13 70
-23 85 -10 16 -17 34 -16 41 2 7 -7 12 -22 12 -14 0 -28 5 -31 10 -7 12 -22
13 -29 2z"/>
<path d="M2800 4291 c0 -10 11 -48 24 -83 14 -36 25 -78 25 -94 -1 -46 26
-153 55 -226 15 -37 30 -84 32 -105 7 -45 40 -131 60 -154 18 -20 34 -68 45
-139 15 -88 15 -95 2 -93 -17 4 -16 -11 3 -82 34 -127 45 -181 54 -272 6 -52
14 -102 19 -111 11 -21 46 -230 62 -367 13 -120 47 -253 69 -275 13 -13 50
-118 50 -142 0 -27 35 -62 52 -52 9 6 0 54 -13 68 -5 6 -9 21 -9 35 0 15 -9
41 -20 59 -11 18 -20 40 -20 49 0 10 -6 35 -14 58 -8 22 -19 69 -25 105 -7 36
-25 126 -40 200 -44 205 -58 289 -50 302 9 13 27 -25 55 -114 10 -32 23 -59
30 -62 13 -5 10 13 -42 234 -19 85 -38 166 -41 180 -36 182 -50 245 -79 357
-19 73 -34 140 -34 149 0 19 -50 127 -63 135 -5 4 -7 11 -3 17 3 5 -1 24 -10
41 -8 17 -18 57 -21 88 -4 38 -17 80 -39 122 -19 35 -34 72 -34 81 0 20 -58
110 -71 110 -5 0 -9 -8 -9 -19z"/>
<path d="M8670 4172 c0 -9 9 -42 21 -72 11 -30 25 -74 30 -98 5 -24 17 -55 27
-70 22 -33 48 -96 57 -137 3 -16 8 -38 12 -49 3 -10 1 -16 -3 -13 -5 3 -10 -7
-11 -21 -1 -26 -1 -26 34 12 31 34 34 42 28 74 -4 20 -10 39 -15 42 -13 9 -22
50 -11 50 6 0 11 7 11 15 0 8 5 15 10 15 6 0 10 -7 10 -16 0 -8 4 -13 9 -9 5
3 12 -5 14 -17 3 -17 5 -14 6 10 0 17 -3 32 -8 32 -5 0 -7 9 -4 20 4 16 0 20
-21 20 -15 0 -25 -4 -21 -9 3 -5 1 -12 -5 -16 -5 -3 -10 -1 -10 4 0 6 -7 11
-15 11 -8 0 -15 5 -15 10 0 6 -7 10 -15 10 -15 0 -18 14 -19 90 -1 22 -5 34
-13 33 -7 -2 -13 6 -13 17 0 14 -6 20 -17 18 -13 -2 -21 7 -28 30 -10 34 -25
43 -25 14z"/>
<path d="M7170 4170 c0 -8 20 -46 45 -84 24 -39 43 -72 40 -74 -2 -2 10 -19
26 -37 16 -17 45 -58 64 -89 19 -31 48 -74 65 -96 16 -21 44 -69 61 -107 71
-155 83 -178 87 -159 9 44 -81 260 -162 386 -72 113 -225 290 -226 260z"/>
<path d="M2260 4065 c-12 -25 -19 -52 -16 -60 3 -8 -4 -21 -15 -28 -12 -9 -17
-20 -13 -31 4 -12 0 -16 -15 -16 -12 0 -21 -4 -21 -10 0 -5 9 -10 20 -10 11 0
20 -7 20 -15 0 -8 -4 -15 -9 -15 -11 0 -31 -87 -31 -135 0 -19 5 -35 10 -35 6
0 10 6 10 13 0 7 9 30 20 51 15 27 18 41 10 50 -7 10 -3 23 15 50 14 20 25 41
25 46 0 6 5 10 10 10 6 0 10 9 10 19 0 11 5 21 11 23 6 2 12 18 13 35 1 17 4
34 8 38 7 8 -20 65 -32 65 -4 0 -18 -20 -30 -45z"/>
<path d="M2151 3664 c-9 -21 -17 -25 -41 -22 -16 2 -27 1 -24 -4 3 -4 -4 -8
-15 -8 -25 0 -34 -15 -33 -51 0 -15 -6 -33 -14 -40 -11 -9 -12 -15 -2 -26 9
-11 7 -15 -10 -20 -23 -6 -32 -35 -9 -30 9 1 11 -13 9 -50 -3 -53 4 -63 26
-41 9 9 15 3 26 -23 12 -27 15 -29 16 -12 0 12 5 25 10 28 6 3 10 17 10 30 0
13 7 31 16 40 9 9 22 32 29 52 11 31 10 38 -6 54 -20 20 -26 45 -8 34 6 -4 18
1 28 11 14 15 15 23 7 36 -8 13 -6 22 7 36 20 22 22 32 4 32 -8 0 -19 -12 -26
-26z"/>
<path d="M7060 3661 c0 -9 90 -51 109 -51 6 0 19 -4 29 -9 9 -5 37 -18 62 -28
73 -30 158 -84 222 -143 66 -60 88 -76 88 -62 0 21 -84 102 -153 148 -40 27
-74 51 -77 54 -18 21 -88 52 -167 74 -101 28 -113 30 -113 17z"/>
<path d="M3651 3299 c-23 -37 -36 -81 -56 -179 -25 -131 -31 -183 -17 -165 4
6 16 15 27 21 10 6 24 30 31 55 14 55 50 116 57 97 3 -7 6 1 6 18 1 17 4 34 8
38 4 4 8 15 8 24 1 9 2 26 3 37 1 11 13 33 27 49 14 16 24 34 22 39 -1 5 -21
10 -44 12 -40 3 -42 1 -72 -46z"/>
<path d="M7741 3068 c-6 -46 -16 -103 -21 -128 -5 -25 -14 -70 -20 -100 -6
-30 -19 -84 -30 -120 -29 -104 -32 -130 -15 -130 18 0 30 28 56 135 10 44 28
114 40 155 14 49 21 107 22 169 2 122 -16 132 -32 19z"/>
<path d="M4005 2901 c-5 -22 0 -39 19 -68 21 -31 25 -49 25 -105 -1 -38 -5
-68 -10 -68 -5 0 -14 -12 -20 -27 -12 -32 -23 -237 -14 -261 5 -13 21 -1 75
57 l70 73 0 68 c0 52 -4 73 -20 93 -11 14 -20 30 -20 37 0 7 -8 9 -19 5 -14
-4 -20 0 -23 20 -3 14 -2 28 3 31 11 6 4 143 -7 154 -5 4 -19 11 -31 14 -18 6
-22 2 -28 -23z"/>
<path d="M7633 2567 c-4 -8 -15 -16 -23 -19 -8 -3 -69 -46 -135 -95 -145 -108
-321 -297 -375 -402 -27 -53 -116 -142 -200 -201 -59 -40 -194 -154 -209 -175
-29 -40 -78 -77 -141 -106 l-65 -30 55 6 c30 4 66 10 80 15 114 39 170 64 170
75 0 8 20 28 45 46 25 18 45 36 45 39 0 15 60 32 89 25 25 -5 39 0 83 33 29
22 80 54 113 72 33 18 76 45 95 60 45 34 174 112 222 134 45 20 170 61 218 71
37 8 363 181 368 196 2 5 10 9 17 9 13 0 51 68 42 76 -2 3 -16 -11 -31 -31
-15 -19 -32 -35 -37 -35 -6 0 -47 -18 -92 -39 -143 -68 -318 -141 -462 -193
-77 -28 -169 -66 -205 -86 -61 -34 -216 -138 -250 -167 -20 -17 -70 -30 -70
-18 0 5 35 42 78 81 42 39 114 106 158 149 45 43 106 98 136 121 65 50 212
117 325 148 76 21 188 64 223 85 8 5 29 16 47 24 36 17 51 35 30 35 -8 0 -58
-9 -111 -20 -71 -14 -129 -36 -228 -84 -73 -35 -151 -67 -173 -71 -22 -3 -49
-9 -60 -12 -19 -5 -19 -5 -2 14 9 11 17 25 17 31 0 6 8 13 18 16 9 3 44 31 77
61 33 30 68 55 77 55 9 0 21 6 25 13 4 8 16 16 25 20 19 7 33 49 24 72 -7 19
-22 19 -33 2z"/>
<path d="M4172 2218 c-8 -8 -9 -15 -1 -25 8 -9 8 -13 0 -13 -6 0 -11 4 -11 9
0 15 -49 22 -70 11 -26 -14 -26 -47 0 -55 17 -5 18 -9 7 -26 -11 -18 -13 -18
-24 -2 -7 9 -15 14 -18 11 -3 -3 1 -11 10 -18 8 -7 15 -18 15 -25 0 -16 52
-61 81 -70 13 -4 25 -2 29 5 5 9 17 9 44 2 32 -9 38 -8 42 6 3 9 9 27 14 38
10 25 -5 83 -35 132 -20 34 -59 44 -83 20z"/>
<path d="M8886 2083 c0 -82 5 -202 10 -268 4 -66 8 -136 7 -155 -2 -63 -15
-140 -24 -140 -5 0 -9 -5 -9 -11 0 -5 5 -7 11 -4 6 4 13 -2 16 -14 7 -26 23
-17 23 13 0 12 4 26 9 32 5 5 12 45 15 89 8 108 9 114 18 109 14 -9 9 86 -8
150 -15 59 -15 95 2 237 3 25 -1 42 -11 52 -8 9 -15 22 -15 30 0 13 -20 27
-38 27 -4 0 -7 -66 -6 -147z"/>
<path d="M9300 2175 c0 -6 7 -20 15 -31 16 -21 20 -64 7 -64 -5 0 -17 15 -27
34 -11 19 -23 32 -27 29 -5 -2 2 -20 16 -38 31 -40 32 -55 7 -83 -19 -23 -61
-30 -61 -12 0 7 -7 7 -21 -1 -18 -9 -20 -8 -15 8 4 13 -2 27 -16 41 l-23 21
-1 -27 c-2 -42 -10 -66 -22 -70 -15 -5 -15 3 0 27 7 11 8 26 3 37 -8 16 -10
14 -13 -13 -3 -30 -22 -48 -22 -22 0 6 -7 9 -17 7 -14 -3 -16 -16 -14 -88 2
-52 7 -88 14 -93 7 -4 -1 -5 -18 -2 -25 5 -27 4 -12 -5 9 -6 17 -16 17 -22 0
-26 103 -103 126 -94 8 3 39 0 70 -6 54 -11 57 -10 75 13 10 13 19 33 20 44 1
17 2 17 6 3 7 -27 21 -21 25 9 2 19 10 29 23 31 20 4 20 3 1 -11 -14 -10 -17
-20 -11 -33 6 -15 8 -16 13 -4 3 8 11 19 19 23 8 5 11 16 8 28 -4 11 -2 19 5
19 6 0 8 5 5 10 -8 12 5 13 23 1 10 -6 8 -10 -10 -15 -14 -5 -18 -9 -10 -13
12 -5 42 13 42 26 0 3 -11 18 -24 32 -13 14 -26 41 -30 60 -6 34 -6 34 13 -7
11 -23 24 -45 31 -49 14 -9 28 3 14 13 -18 13 -44 61 -44 82 0 11 -5 20 -11
20 -5 0 -7 4 -4 10 3 5 19 -4 35 -20 34 -35 48 -39 26 -9 -8 12 -12 29 -9 38
4 14 3 14 -6 1 -9 -13 -11 -13 -11 2 0 9 -16 25 -35 37 -38 22 -41 31 -23 61
11 17 9 23 -9 42 -20 19 -23 20 -29 5 -9 -25 -24 -21 -24 6 0 20 -5 24 -30 24
-16 0 -30 -5 -30 -12z"/>
<path d="M3336 2063 c-3 -4 -2 -11 3 -17 6 -6 12 -34 16 -61 3 -26 11 -55 17
-62 8 -10 8 -17 0 -25 -7 -7 -12 -30 -12 -52 0 -47 -11 -41 -19 11 -3 20 -12
38 -20 41 -10 3 -12 0 -6 -14 9 -23 9 -20 7 -111 -2 -66 -5 -74 -37 -113 -38
-45 -40 -63 -9 -69 10 -2 25 -12 32 -22 26 -37 37 -22 40 57 2 77 13 114 34
114 6 0 29 8 50 17 45 20 50 46 17 87 -17 21 -19 32 -12 49 12 28 -5 73 -41
106 -14 14 -26 32 -26 42 0 17 -23 32 -34 22z"/>
<path d="M7604 1935 c-19 -19 -41 -35 -48 -35 -8 0 -36 -15 -62 -33 -27 -18
-84 -50 -127 -72 -87 -44 -171 -108 -128 -98 13 3 54 21 90 38 37 18 109 47
161 65 52 18 101 37 109 44 12 9 61 107 61 121 0 14 -25 1 -56 -30z"/>
<path d="M3735 1780 c-11 -18 17 -42 95 -78 61 -29 263 -143 279 -158 2 -2 -1
-15 -7 -28 -8 -18 -7 -28 3 -44 16 -22 52 -35 61 -21 3 5 0 9 -5 9 -6 0 -11 5
-11 11 0 6 -7 17 -15 25 -12 13 -13 19 -3 37 l12 22 6 -25 c3 -14 13 -41 24
-60 12 -21 15 -35 8 -38 -6 -2 -8 -10 -5 -18 3 -9 0 -26 -7 -40 -14 -26 -8
-39 17 -39 9 0 26 -18 38 -40 24 -41 61 -60 103 -50 12 3 22 1 22 -5 0 -5 -5
-10 -11 -10 -6 0 -9 -10 -7 -22 3 -20 8 -23 39 -20 34 2 37 0 52 -39 15 -37
37 -47 37 -15 0 23 37 48 59 41 26 -8 29 -1 34 99 5 93 19 111 95 121 26 3 54
10 62 14 8 4 28 4 45 0 36 -10 68 12 47 33 -16 16 -15 28 2 28 15 0 20 10 31
70 4 19 21 50 38 68 37 38 26 41 -58 11 -33 -11 -83 -22 -112 -24 -137 -8
-230 -18 -245 -27 -17 -8 -26 -58 -10 -58 4 0 32 7 62 15 51 13 100 12 100 -4
0 -11 -102 -41 -150 -43 -38 -3 -47 -7 -58 -32 -8 -15 -23 -37 -34 -48 -15
-15 -19 -28 -14 -50 5 -26 4 -27 -9 -14 -8 8 -15 23 -15 34 0 22 26 79 41 87
5 4 9 17 9 30 0 13 6 25 14 27 11 2 10 9 -7 30 -16 19 -34 28 -64 32 -30 3
-43 1 -43 -7 0 -8 -3 -8 -9 1 -8 14 -50 27 -132 42 -43 8 -191 80 -251 121
-14 11 -32 19 -40 19 -15 0 -78 22 -95 33 -6 4 -15 3 -18 -3z"/>
</g>
</svg>
